<?xml version="1.0" encoding="utf-8" standalone="no"?>
<!DOCTYPE svg PUBLIC "-//W3C//DTD SVG 1.1//EN"
  "http://www.w3.org/Graphics/SVG/1.1/DTD/svg11.dtd">
<svg xmlns:xlink="http://www.w3.org/1999/xlink" width="238.250336pt" height="208.232819pt" viewBox="0 0 238.250336 208.232819" xmlns="http://www.w3.org/2000/svg" version="1.1">
 <metadata>
  <rdf:RDF xmlns:dc="http://purl.org/dc/elements/1.1/" xmlns:cc="http://creativecommons.org/ns#" xmlns:rdf="http://www.w3.org/1999/02/22-rdf-syntax-ns#">
   <cc:Work>
    <dc:type rdf:resource="http://purl.org/dc/dcmitype/StillImage"/>
    <dc:date>2026-05-07T14:44:53.901592</dc:date>
    <dc:format>image/svg+xml</dc:format>
    <dc:creator>
     <cc:Agent>
      <dc:title>Matplotlib v3.9.2, https://matplotlib.org/</dc:title>
     </cc:Agent>
    </dc:creator>
   </cc:Work>
  </rdf:RDF>
 </metadata>
 <defs>
  <style type="text/css">*{stroke-linejoin: round; stroke-linecap: butt}</style>
 </defs>
 <g id="figure_1">
  <g id="patch_1">
   <path d="M 0 208.232819 
L 238.250336 208.232819 
L 238.250336 0 
L 0 0 
z
" style="fill: #ffffff"/>
  </g>
  <g id="axes_1">
   <g id="patch_2">
    <path d="M 7.2 198.597459 
L 221.649963 198.597459 
L 221.649963 18.099375 
L 7.2 18.099375 
z
" style="fill: #ffffff"/>
   </g>
   <g id="matplotlib.axis_1"/>
   <g id="matplotlib.axis_2"/>
   <g id="line2d_1">
    <path d="M -1 177.609309 
L 109.343096 177.609309 
L 109.90463 177.241096 
L 221.649963 30.692265 
L 221.649963 30.692265 
" clip-path="url(#p750b73f734)" style="fill: none; stroke-dasharray: 7,4.2; stroke-dashoffset: 0; stroke: #1a1a1a; stroke-opacity: 0.55; stroke-width: 1.4"/>
   </g>
   <g id="line2d_2">
    <path d="M -1 176.305383 
L 11.636121 175.688523 
L 22.305274 174.952254 
L 31.851357 174.066963 
L 40.274372 173.056616 
L 47.574319 171.965658 
L 54.312731 170.746131 
L 60.489608 169.419586 
L 66.666486 167.864975 
L 72.281829 166.22963 
L 77.897173 164.360398 
L 82.950982 162.460701 
L 88.004791 160.340139 
L 93.0586 157.985827 
L 98.112409 155.386861 
L 103.166218 152.534789 
L 108.220027 149.423997 
L 113.273836 146.051975 
L 118.327645 142.419446 
L 123.381454 138.53032 
L 128.996797 133.916629 
L 134.612141 129.008089 
L 140.789018 123.288132 
L 146.965896 117.257282 
L 153.704308 110.356418 
L 161.004254 102.543862 
L 168.865735 93.791311 
L 177.28875 84.084733 
L 186.834834 72.748269 
L 198.065521 59.053981 
L 211.542345 42.244688 
L 221.649963 29.443452 
L 221.649963 29.443452 
" clip-path="url(#p750b73f734)" style="fill: none; stroke: #1a1a1a; stroke-width: 2.2; stroke-linecap: square"/>
   </g>
   <g id="patch_3">
    <path d="M 9.199343 177.609309 
Q 114.424576 177.609309 218.308169 177.609309 
" style="fill: none; stroke: #1a1a1a; stroke-width: 1.2; stroke-linecap: round"/>
    <path d="M 214.308169 175.609309 
L 218.308169 177.609309 
L 214.308169 179.609309 
" style="fill: none; stroke: #1a1a1a; stroke-width: 1.2; stroke-linecap: round"/>
   </g>
   <g id="patch_4">
    <path d="M 109.623863 196.595168 
Q 109.623863 108.348206 109.623863 21.442884 
" style="fill: none; stroke: #1a1a1a; stroke-width: 1.2; stroke-linecap: round"/>
    <path d="M 107.623863 25.442884 
L 109.623863 21.442884 
L 111.623863 25.442884 
" style="fill: none; stroke: #1a1a1a; stroke-width: 1.2; stroke-linecap: round"/>
   </g>
   <g id="text_1">
    <!-- $O$ -->
    <g style="fill: #1a1a1a" transform="translate(95.17252 198.67985)">
     <text>
      <tspan style="font: oblique 11px 'DejaVu Sans'" x="0" y="-0.828125">O</tspan>
     </text>
    </g>
   </g>
   <g id="text_2">
    <!-- $x$ -->
    <g style="fill: #1a1a1a" transform="translate(223.250336 188.734999)">
     <text>
      <tspan style="font: oblique 13px 'DejaVu Sans'" x="0" y="-0.890625">x</tspan>
     </text>
    </g>
   </g>
   <g id="text_3">
    <!-- $f(x)$ -->
    <g style="fill: #1a1a1a" transform="translate(113.464758 15.5325)">
     <text>
      <tspan style="font: oblique 12px 'DejaVu Sans'" x="0 8.90625" y="-0.875">fx</tspan>
      <tspan style="font: 12px 'DejaVu Sans'" x="4.224609 16.007812" y="-0.875">()</tspan>
     </text>
    </g>
   </g>
  </g>
 </g>
 <defs>
  <clipPath id="p750b73f734">
   <rect x="7.2" y="18.099375" width="214.449963" height="180.498084"/>
  </clipPath>
 </defs>
</svg>
